<?xml version="1.0" standalone="no"?>
<!DOCTYPE svg PUBLIC "-//W3C//DTD SVG 20010904//EN"
 "http://www.w3.org/TR/2001/REC-SVG-20010904/DTD/svg10.dtd">
<svg version="1.0" xmlns="http://www.w3.org/2000/svg"
 width="5000.000000pt" height="4000.000000pt" viewBox="0 0 5000.000000 4000.000000"
 preserveAspectRatio="xMidYMid meet">

<g transform="translate(0.000000,4000.000000) scale(0.100000,-0.100000)"
fill="#000000" stroke="none">
<path d="M32136 30318 c-23 -802 -158 -1413 -436 -1983 -489 -1000 -1391
-1738 -2850 -2330 -828 -336 -1523 -547 -3525 -1070 -434 -113 -916 -240
-1070 -281 -1671 -449 -2805 -831 -3915 -1317 -1059 -463 -1802 -1091 -2335
-1972 -157 -261 -344 -677 -445 -990 -284 -889 -354 -1921 -204 -3000 33 -233
76 -462 122 -650 l37 -150 2 105 c33 1635 523 2592 1585 3100 514 245 1168
401 2143 509 359 41 692 70 1460 131 1667 131 2527 231 3475 401 1520 273
3031 734 4010 1224 1136 568 1936 1288 2446 2200 298 534 488 1156 559 1830
22 205 30 704 16 935 -60 955 -329 1980 -780 2975 -77 169 -246 506 -275 547
-11 15 -14 -20 -20 -214z"/>
<path d="M30685 20054 c-59 -77 -228 -244 -335 -330 -612 -497 -1545 -881
-2646 -1089 -867 -164 -1771 -228 -2919 -205 -1943 39 -2728 19 -3465 -86
-959 -137 -1656 -429 -2138 -899 -362 -351 -592 -769 -726 -1318 -89 -361
-126 -734 -126 -1262 0 -392 13 -605 61 -990 251 -2037 1314 -4434 3032 -6840
383 -535 960 -1272 1226 -1565 40 -44 39 -42 -35 100 -135 258 -508 1017 -649
1320 -1076 2315 -1741 4362 -1914 5890 -36 317 -45 471 -45 790 1 641 89 1100
293 1517 79 160 137 254 232 374 84 106 256 273 340 330 405 275 1132 357
2344 264 302 -24 743 -69 1252 -130 1565 -188 1887 -218 2388 -219 472 -1 825
45 1198 154 328 96 607 226 892 415 514 342 914 814 1220 1440 288 589 478
1279 549 2000 16 165 31 405 25 404 -2 0 -26 -29 -54 -65z"/>
</g>
</svg>
